HIERARCHY
ROOT Hips
{
  OFFSET 3.13124 94.3669 -3.18751
  CHANNELS  6 Xposition Yposition Zposition Zrotation Xrotation Yrotation
  JOINT LeftUpLeg
  {
    OFFSET 8.64259 1.95398 -2.38835
    CHANNELS 3 Zrotation Xrotation Yrotation
    JOINT LeftLeg
    {
      OFFSET 43.7702 0 0
      CHANNELS 3 Zrotation Xrotation Yrotation
      JOINT LeftFoot
      {
        OFFSET 40.6238 0 0
        CHANNELS 3 Zrotation Xrotation Yrotation
        JOINT LeftToeBase
        {
          OFFSET 12.7242 0 0
          CHANNELS 3 Zrotation Xrotation Yrotation
          End Site
          {
            OFFSET 0 0 0
          }
        }
      }
    }
  }
  JOINT RightUpLeg
  {
    OFFSET -8.2249 1.95398 -2.59336
    CHANNELS 3 Zrotation Xrotation Yrotation
    JOINT RightLeg
    {
      OFFSET 43.5653 0 0
      CHANNELS 3 Zrotation Xrotation Yrotation
      JOINT RightFoot
      {
        OFFSET 40.6238 0 0
        CHANNELS 3 Zrotation Xrotation Yrotation
        JOINT RightToeBase
        {
          OFFSET 12.7242 0 0
          CHANNELS 3 Zrotation Xrotation Yrotation
          End Site
          {
            OFFSET 0 0 0
          }
        }
      }
    }
  }
  JOINT Spine
  {
    OFFSET 0.165834 0.87714 6.61349
    CHANNELS 3 Zrotation Xrotation Yrotation
    JOINT Spine1
    {
      OFFSET 7.38962 1.71661e-005 0
      CHANNELS 3 Zrotation Xrotation Yrotation
      JOINT Spine2
      {
        OFFSET 11.9445 1.14441e-005 0
        CHANNELS 3 Zrotation Xrotation Yrotation
        JOINT Spine3
        {
          OFFSET 14.7254 4.19617e-005 0
          CHANNELS 3 Zrotation Xrotation Yrotation
          JOINT Spine4
          {
            OFFSET 10.9679 0 0
            CHANNELS 3 Zrotation Xrotation Yrotation
            JOINT RightShoulder
            {
              OFFSET 2.46616 -1.6653 3.69651
              CHANNELS 3 Zrotation Xrotation Yrotation
              JOINT RightArm
              {
                OFFSET 13.0012 0 0
                CHANNELS 3 Zrotation Xrotation Yrotation
                JOINT RightForeArm
                {
                  OFFSET 28.7848 1.52588e-005 0
                  CHANNELS 3 Zrotation Xrotation Yrotation
                  JOINT RightHand
                  {
                    OFFSET 26.5688 1.52588e-005 0
                    CHANNELS 3 Zrotation Xrotation Yrotation
                    End Site
                    {
                      OFFSET 0 0 0
                    }
                  }
                }
              }
            }
            JOINT LeftShoulder
            {
              OFFSET 2.38034 -1.29275 -3.75231
              CHANNELS 3 Zrotation Xrotation Yrotation
              JOINT LeftArm
              {
                OFFSET 16.3182 6.10352e-005 0
                CHANNELS 3 Zrotation Xrotation Yrotation
                JOINT LeftForeArm
                {
                  OFFSET 27.0901 0 0
                  CHANNELS 3 Zrotation Xrotation Yrotation
                  JOINT LeftHand
                  {
                    OFFSET 24.5451 1.52588e-005 0
                    CHANNELS 3 Zrotation Xrotation Yrotation
                    End Site
                    {
                      OFFSET 0 0 0
                    }
                  }
                }
              }
            }
            JOINT Neck
            {
              OFFSET 5.0226 -0.0266342 0
              CHANNELS 3 Zrotation Xrotation Yrotation
              JOINT Head
              {
                OFFSET 6.69363 2.86102e-005 0
                CHANNELS 3 Zrotation Xrotation Yrotation
                End Site
                {
                  OFFSET 0 0 0
                }
              }
            }
          }
        }
      }
    }
  }
}
MOTION
Frames:	17
Frame Time:	0.0333333
4.83935 95.2059 -6.80359 131.278 -89.9983 131.313 -175.738 2.2805 90.3085 -8.37576 4.05729 0.684532 63.1344 1.35844 0.696864 28.7808 5.28218e-006 -3.27847e-006 179.79 1.94387 89.726 -7.70437 -0.0808729 -0.0137997 62.7675 -1.18054 -0.599104 28.7808 1.45243e-005 2.64114e-005 0.0027297 6.34012 -90.0345 14.1934 -0.0126857 3.14685e-006 2.52251 -0.0120631 -7.64905e-006 -20.0126 6.54287e-007 0.00810465 -1.59028e-015 9.31803e-018 0.00810366 101.189 -18.326 -84.5995 -9.27909 28.5769 -4.44586 -7.28231 -28.7424 -10.7584 2.063 0.132452 1.7214 -78.4875 -21.336 95.421 17.8008 -30.5102 -5.63574 6.07411 30.2275 -10.0311 -2.18492 -0.0762034 1.87565 1.7623 -0.00179406 -0.00652738 -7.41582 0.00852245 0.0093684 
4.83824 95.1637 -6.82177 168.612 -89.9786 168.619 -175.732 2.32312 90.2782 -8.49099 3.86288 0.605196 63.2907 1.46222 0.75719 28.7808 5.28218e-006 -3.27847e-006 179.764 3.17565 89.6945 -10.2709 -0.162516 -0.0137997 63.8007 -1.4096 -0.746941 28.7808 1.45243e-005 2.64114e-005 0.000221678 6.34022 -90.003 14.1934 -0.0126857 3.14685e-006 2.52251 -0.0120631 -7.64905e-006 -20.0126 6.54287e-007 0.00810465 -3.18055e-015 3.10601e-018 0.00810366 101.2 -18.4608 -84.65 -9.57547 29.0288 -3.3909 -8.48416 -29.5504 -12.9426 3.0317 0.20725 2.26889 -78.4531 -21.307 95.4105 17.7781 -30.4901 -5.73589 6.03403 30.4434 -9.9081 -2.11602 -0.0763032 2.06396 1.89713 -0.0290741 -0.100161 -7.49325 0.00852061 0.1474 
4.84324 95.1719 -6.83305 162.09 -89.9234 162.072 -175.728 2.35943 90.2555 -8.66044 3.9775 0.639878 63.2712 1.39 0.712306 28.7808 5.28218e-006 -3.27847e-006 179.756 3.13153 89.6611 -10.2795 -0.177122 -0.0137997 63.8043 -1.38119 -0.731019 28.7808 1.45243e-005 2.64114e-005 -0.000847604 6.34023 -89.9894 14.1934 -0.0126857 -1.68566e-005 2.52246 -0.0120631 -2.74297e-005 -20.0127 1.92283e-005 0.00810465 -4.78207e-005 1.85972e-005 0.00810366 101.231 -18.444 -84.5483 -9.47005 28.6944 -4.46088 -7.38803 -28.996 -10.9068 2.02383 0.136947 2.03347 -78.4684 -21.2945 95.3943 17.7672 -30.5142 -5.67643 6.12819 30.5243 -10.0742 -2.17466 -0.0794553 2.04868 2.00141 -0.0323724 -0.0321138 -7.55434 0.00777921 0.110597 
4.84586 95.1769 -6.85305 134.424 -89.9519 134.431 -175.732 2.33063 90.2772 -8.48185 3.95196 0.628752 63.227 1.46359 0.757171 28.7808 5.28218e-006 -3.27847e-006 179.764 3.05692 89.6897 -10.0186 -0.133708 -0.0137997 63.6656 -1.39088 -0.734064 28.7808 1.45243e-005 2.64114e-005 0.000329189 6.33973 -90.0064 14.1944 -0.0126857 0.00038842 2.52347 -0.0120631 0.000400426 -20.0117 -0.000363501 0.00810465 0.000956212 -0.000363211 0.00810366 101.313 -18.4438 -84.4686 -9.52078 28.7292 -4.43225 -7.46069 -29.2085 -10.9976 2.12865 0.138205 1.79834 -78.4264 -21.274 95.3783 17.7928 -30.6371 -5.38329 6.45875 30.3963 -10.7462 -2.57313 -0.101979 2.16587 2.19271 -0.0263179 0.0321637 -7.61338 -0.00348313 0.123236 
4.84789 95.176 -6.86922 96.9281 -89.9457 96.937 -175.751 2.34246 90.271 -8.42718 4.18469 0.731389 63.1965 1.30628 0.666391 28.7808 5.28218e-006 -3.27847e-006 179.76 3.07421 89.6897 -9.97633 -0.107474 -0.0137997 63.6321 -1.42751 -0.753996 28.7808 1.45243e-005 2.64114e-005 -0.00397839 6.32674 -90.0095 14.2204 -0.0126857 0.0111581 2.54945 -0.0120631 0.0114742 -19.9857 -0.0106616 0.00810466 0.0269395 -0.0106531 0.00810367 101.262 -18.4875 -84.4224 -9.46491 29.1499 -3.56903 -8.70576 -29.6367 -13.3522 2.89759 0.223856 3.09275 -78.5017 -21.2196 95.3719 17.8518 -30.5907 -5.43474 6.31433 30.4009 -10.4617 -2.51963 -0.0987741 2.02888 2.22014 0.0031735 0.0576087 -7.63936 -0.0109123 0.16699 
4.85212 95.197 -6.88004 113.159 -89.923 113.145 -175.735 2.46622 90.2558 -8.71528 3.96073 0.610845 63.1674 1.40634 0.719126 28.7808 5.28218e-006 -3.27847e-006 179.76 2.91238 89.6617 -9.68177 -0.115204 -0.0137997 63.5061 -1.39447 -0.734292 28.7808 1.45243e-005 2.64114e-005 -0.00852337 6.32503 -89.9885 14.2238 -0.0129018 0.0139913 2.55287 -0.0122666 0.0145435 -19.9823 -0.0166174 0.00810466 0.0303622 -0.0166143 0.00810367 101.229 -18.4729 -84.4846 -9.46733 29.0845 -3.61834 -8.50808 -29.3584 -13.0513 2.83984 0.223632 3.21248 -78.5124 -21.2066 95.3671 17.8835 -30.7645 -4.9638 6.82294 30.267 -11.4822 -3.05 -0.129044 2.13803 2.19137 0.0299498 0.1365 -7.5361 0.00180132 0.121174 
4.85576 95.1934 -6.89366 96.08 -89.9165 96.0816 -175.747 2.39926 90.2647 -8.50817 4.02721 0.643111 63.1334 1.37152 0.70225 28.7808 5.28218e-006 -3.27847e-006 179.762 2.91144 89.6823 -9.61465 -0.038875 -0.0137997 63.4524 -1.4349 -0.755788 28.7808 1.45243e-005 2.64114e-005 -0.00911797 6.31803 -90.0039 14.2378 -0.0161672 0.0144696 2.56687 -0.0153469 0.0150921 -19.9683 -0.020909 0.00810466 0.0443631 -0.0209062 0.00810367 101.244 -18.5227 -84.4565 -9.45599 29.1755 -3.42058 -8.80637 -29.4866 -13.5746 3.08553 0.250505 3.49103 -78.5214 -21.1614 95.3318 17.8774 -30.6056 -5.24526 6.43479 30.4156 -10.6856 -2.61017 -0.103887 2.06409 2.21483 0.032995 0.0905849 -7.60255 0.0118391 0.181821 
4.86355 95.1908 -6.89542 127.608 -89.9116 127.629 -175.735 2.3037 90.2848 -8.40417 3.96623 0.614159 63.1474 1.419 0.731547 28.7808 5.28218e-006 -3.27847e-006 179.761 2.86494 89.6932 -9.61166 -0.0665181 -0.0137997 63.4609 -1.42078 -0.747495 28.7808 1.45243e-005 2.64114e-005 -0.00547752 6.32262 -90.0176 14.2292 -0.0174028 0.0138742 2.55825 -0.0165455 0.0144998 -19.9769 -0.0223283 0.00810466 0.0357359 -0.0223261 0.00810367 101.247 -18.5062 -84.4568 -9.43093 29.2147 -3.25607 -8.99484 -29.5627 -13.905 3.20165 0.263943 3.63143 -78.5292 -21.177 95.3088 17.8529 -30.5414 -5.39214 6.23471 30.2912 -10.3363 -2.5162 -0.0984639 1.94414 2.22818 0.0200279 0.146205 -7.67746 -0.006159 0.124037 
4.86524 95.2076 -6.89597 118.121 -89.8986 118.143 -175.727 2.35952 90.287 -8.50262 4.06762 0.64196 63.1032 1.37434 0.703549 28.7808 5.28218e-006 -3.27847e-006 179.77 2.71258 89.6946 -9.28443 -0.0341967 -0.0137997 63.3089 -1.40886 -0.738932 28.7808 1.45243e-005 2.64114e-005 -0.00771487 6.32342 -90.0095 14.2443 -0.0177293 0.0131499 2.57337 -0.0168841 0.0137846 -19.9618 -0.0225569 0.00804643 0.0508655 -0.0225556 0.00804545 101.257 -18.4868 -84.4278 -9.37339 29.1906 -3.30114 -8.94674 -29.4635 -13.851 3.24547 0.26694 3.62032 -78.5356 -21.1618 95.298 17.8013 -30.6239 -5.16825 6.53432 30.2845 -10.9156 -2.69192 -0.10858 2.09849 2.16461 0.0309114 0.113182 -7.7383 0.00976594 0.101115 
4.87522 95.1992 -6.89629 127.555 -89.9108 127.595 -175.74 2.25436 90.3021 -8.29954 3.99412 0.619587 63.1139 1.38111 0.711158 28.7808 5.28218e-006 -3.27847e-006 179.764 2.52267 89.7097 -8.90257 -0.0184992 -0.0137997 63.1762 -1.4031 -0.732343 28.7808 1.45243e-005 2.64114e-005 -0.00436013 6.32247 -90.0401 14.245 -0.0174135 0.0125522 2.57403 -0.0166188 0.0132149 -19.9611 -0.0219191 0.00710372 0.0515329 -0.0219188 0.00710297 101.338 -18.5666 -84.2181 -9.30845 29.1378 -3.84758 -8.64577 -29.4899 -13.2553 2.93747 0.237482 3.42677 -78.5511 -21.147 95.267 17.7849 -30.5247 -5.3346 6.27992 30.2524 -10.431 -2.5043 -0.0978049 1.93514 2.18134 0.0242447 0.103336 -7.82467 0.00536853 0.070047 
4.87761 95.2119 -6.89089 122.265 -89.895 122.285 -175.725 2.34898 90.2841 -8.50189 3.92122 0.572104 63.0942 1.40342 0.720596 28.7808 5.28218e-006 -3.27847e-006 179.758 2.66738 89.6757 -9.21837 -0.104141 -0.0137997 63.2532 -1.50204 -0.791394 28.7808 1.45243e-005 2.64114e-005 -0.00875737 6.32085 -90.0147 14.2502 -0.0167225 0.0118305 2.57927 -0.0160062 0.0125184 -19.9559 -0.0207391 0.00616311 0.0567695 -0.0207399 0.00616257 101.239 -18.3651 -84.4712 -9.2148 29.2393 -3.17153 -9.16501 -29.3083 -14.3451 3.35135 0.294264 4.17481 -78.5383 -21.242 95.3031 17.8203 -30.4468 -5.71662 5.88607 30.1196 -9.70139 -2.32989 -0.0883107 1.61572 2.09243 0.000119781 0.141319 -7.8118 -0.0226041 0.0245343 
4.88443 95.1998 -6.88975 126.685 -89.8891 126.697 -175.735 2.30701 90.2729 -8.44712 4.00083 0.605236 63.1379 1.42584 0.735105 28.7808 5.28218e-006 -3.27847e-006 179.749 2.86905 89.6701 -9.64928 -0.0878823 -0.0134705 63.4513 -1.52452 -0.806248 28.7808 1.45243e-005 2.64114e-005 -0.0105611 6.3189 -90.0183 14.2559 -0.0159233 0.0110051 2.58499 -0.0153024 0.0117216 -19.9502 -0.0193413 0.00525921 0.0624852 -0.0193431 0.00525859 101.287 -18.3526 -84.3589 -9.07761 29.1349 -3.67315 -8.80059 -29.1574 -13.7003 2.97979 0.260381 4.05465 -78.5362 -21.241 95.3007 17.7874 -30.5452 -5.41843 6.27473 30.2815 -10.4053 -2.54823 -0.100171 1.91224 2.11034 -0.0219579 0.144324 -7.86734 -0.0424918 0.00660759 
4.88974 95.1897 -6.89081 116.74 -89.9066 116.768 -175.742 2.27686 90.2888 -8.33002 3.8552 0.54242 63.1551 1.41884 0.733776 28.7808 5.28218e-006 -3.27847e-006 179.751 2.90333 89.694 -9.66798 0.014101 -0.00799265 63.4597 -1.48469 -0.78265 28.7808 1.45243e-005 2.64114e-005 -0.00581492 6.31734 -90.0417 14.2554 -0.0152828 0.0100963 2.58442 -0.0147639 0.0108512 -19.9507 -0.0180499 0.00464666 0.0619125 -0.0180525 0.00464522 101.305 -18.4138 -84.3152 -9.15888 29.2224 -3.60486 -8.9404 -29.2207 -13.9538 3.06759 0.264519 3.96505 -78.5727 -21.2965 95.2164 17.8189 -30.4707 -5.53849 6.05831 30.2625 -9.98945 -2.36168 -0.0899477 1.71031 2.13565 -0.040063 0.154492 -7.90642 -0.0617728 -0.00157001 
4.8927 95.1941 -6.88603 136.158 -89.9046 136.158 -175.735 2.3523 90.2575 -8.55889 3.99379 0.607307 63.1741 1.40675 0.723008 28.7808 5.28218e-006 -3.27847e-006 179.767 3.1289 89.6865 -10.1806 0.178915 0.00015407 63.6645 -1.38833 -0.731814 28.7808 1.45243e-005 2.64114e-005 -0.00953356 6.31721 -90.005 14.2414 -0.0150682 0.00912393 2.57047 -0.0146468 0.00993477 -19.9647 -0.0171892 0.00434476 0.0479633 -0.0171923 0.00434186 101.283 -18.4172 -84.3586 -9.13084 29.2077 -3.61602 -8.92433 -29.2109 -13.9322 3.07371 0.264572 3.95153 -78.5602 -21.2692 95.2549 17.7515 -30.476 -5.5644 6.08846 30.2137 -10.0621 -2.36747 -0.0902681 1.766 2.14711 -0.0184321 0.128654 -7.83424 -0.0362546 -0.026482 
4.89079 95.1987 -6.88744 117.64 -89.9293 117.651 -175.743 2.3782 90.2642 -8.53463 3.99407 0.615514 63.1624 1.41181 0.726749 28.7808 5.28218e-006 -3.27847e-006 179.769 2.9692 89.6949 -9.76838 0.184744 0.00142592 63.4994 -1.42022 -0.747416 28.7808 1.45243e-005 2.64114e-005 -0.00811804 6.31885 -90.0137 14.236 -0.0155463 0.0080197 2.56508 -0.0152076 0.0092306 -19.9701 -0.0170835 0.00412043 0.0425768 -0.0170866 0.00411582 101.293 -18.4561 -84.343 -9.08673 29.2751 -3.50029 -9.13548 -29.2441 -14.3364 3.25471 0.284275 4.10982 -78.5477 -21.3125 95.2735 17.7388 -30.5591 -5.46267 6.29174 30.2149 -10.459 -2.50972 -0.0980877 1.88061 2.17577 -0.0396786 0.0979972 -7.79648 -0.0493879 -0.0428735 
4.88807 95.2017 -6.8772 99.2 -89.929 99.2346 -175.734 2.40074 90.2877 -8.5449 4.00484 0.608989 63.178 1.42439 0.734804 28.7808 5.28218e-006 -3.27847e-006 179.786 2.91275 89.7289 -9.61155 0.306306 0.0085718 63.4329 -1.37125 -0.718167 28.7808 1.45243e-005 2.64114e-005 -0.0080208 6.32472 -90.0243 14.2245 -0.0169843 0.00679192 2.55353 -0.0167026 0.00879322 -19.9816 -0.0180569 0.00374054 0.0310167 -0.0180597 0.00373442 101.293 -18.4636 -84.3302 -8.99634 29.3173 -3.41501 -9.30366 -29.2063 -14.6853 3.41344 0.299879 4.18933 -78.5715 -21.3389 95.2316 17.7434 -30.3925 -5.81607 5.78046 29.9808 -9.50477 -2.21028 -0.0827461 1.26555 2.19923 -0.0463626 0.127423 -7.74739 -0.0609243 -0.0693268 
4.88892 95.1932 -6.86165 88.8851 -89.9154 88.9206 -175.781 2.52431 90.2439 -8.80158 4.01328 0.721175 63.2642 1.38797 0.712364 28.7808 5.28218e-006 -3.27847e-006 179.794 3.1641 89.7354 -10.1207 0.353882 0.0100288 63.6105 -1.29845 -0.67843 28.7808 1.45243e-005 2.64114e-005 -0.00930828 6.32835 -90.0113 14.2172 -0.0196734 0.00554411 2.54628 -0.0194121 0.00843045 -19.9889 -0.0204584 0.002972 0.0237674 -0.0204601 0.00296497 101.299 -18.567 -84.3356 -8.94423 29.3304 -3.3889 -9.39247 -29.2707 -14.837 3.48708 0.30963 4.29347 -78.556 -21.3521 95.2411 17.6936 -30.714 -5.15941 6.79296 30.4435 -11.3786 -3.04232 -0.128704 2.18413 2.09423 -0.0795894 0.0334045 -7.63576 -0.07266 -0.00698311 
